<svg xmlns="http://www.w3.org/2000/svg" xmlns:xlink="http://www.w3.org/1999/xlink" width="1920" zoomAndPan="magnify" viewBox="0 0 1440 299.999988" height="400" preserveAspectRatio="xMidYMid meet" version="1.2"><defs><clipPath id="a83695e264"><path d="M 137 30 L 201.75 30 L 201.75 217 L 137 217 Z M 137 30 "/></clipPath></defs><g id="83ee2a1f85"><rect x="0" width="1440" y="0" height="299.999988" style="fill:#ffffff;fill-opacity:1;stroke:none;"/><rect x="0" width="1440" y="0" height="299.999988" style="fill:#ffffff;fill-opacity:1;stroke:none;"/><g style="fill:#231f20;fill-opacity:1;"><g transform="translate(240.422544, 192.631454)"><path style="stroke:none" d="M 26.5 0 L 10.453125 0 L 10.453125 -87.703125 L 26.5 -87.703125 L 26.5 -51.328125 L 70.734375 -51.328125 L 70.734375 -87.703125 L 86.859375 -87.703125 L 86.859375 0 L 70.734375 0 L 70.734375 -37.015625 L 26.5 -37.015625 Z M 26.5 0 "/></g></g><g style="fill:#231f20;fill-opacity:1;"><g transform="translate(337.715148, 192.631454)"><path style="stroke:none" d="M 71.125 0 L 10.453125 0 L 10.453125 -87.703125 L 70.546875 -87.703125 L 70.546875 -73.3125 L 26.5 -73.3125 L 26.5 -51.328125 L 64.546875 -51.328125 L 64.546875 -37.78125 L 26.5 -37.78125 L 26.5 -14.375 L 71.125 -14.375 Z M 71.125 0 "/></g></g><g style="fill:#231f20;fill-opacity:1;"><g transform="translate(413.021817, 192.631454)"><path style="stroke:none" d="M 66.09375 0 L 10.453125 0 L 10.453125 -87.703125 L 26.5 -87.703125 L 26.5 -14.375 L 66.09375 -14.375 Z M 66.09375 0 "/></g></g><g style="fill:#231f20;fill-opacity:1;"><g transform="translate(481.687572, 192.631454)"><path style="stroke:none" d="M 26.5 0 L 10.453125 0 L 10.453125 -87.703125 L 47.390625 -87.703125 C 51.816406 -87.703125 55.890625 -86.96875 59.609375 -85.5 C 63.328125 -84.039062 66.539062 -81.988281 69.25 -79.34375 C 71.957031 -76.695312 74.0625 -73.566406 75.5625 -69.953125 C 77.070312 -66.347656 77.828125 -62.421875 77.828125 -58.171875 C 77.828125 -53.648438 77.082031 -49.539062 75.59375 -45.84375 C 74.113281 -42.144531 72.03125 -38.960938 69.34375 -36.296875 C 66.664062 -33.640625 63.476562 -31.585938 59.78125 -30.140625 C 56.082031 -28.703125 52.039062 -27.984375 47.65625 -27.984375 L 26.5 -27.984375 Z M 26.5 -73.375 L 26.5 -42.296875 L 46.875 -42.296875 C 49.675781 -42.296875 52.203125 -42.992188 54.453125 -44.390625 C 56.710938 -45.796875 58.5 -47.691406 59.8125 -50.078125 C 61.125 -52.460938 61.78125 -55.160156 61.78125 -58.171875 C 61.78125 -60.828125 61.113281 -63.316406 59.78125 -65.640625 C 58.445312 -67.960938 56.648438 -69.832031 54.390625 -71.25 C 52.128906 -72.664062 49.582031 -73.375 46.75 -73.375 Z M 26.5 -73.375 "/></g></g><g style="fill:#231f20;fill-opacity:1;"><g transform="translate(561.507484, 192.631454)"><path style="stroke:none" d="M 44.421875 0 L 10.453125 0 L 10.453125 -87.703125 L 44.234375 -87.703125 C 51.242188 -87.703125 57.609375 -86.65625 63.328125 -84.5625 C 69.046875 -82.476562 73.957031 -79.5 78.0625 -75.625 C 82.164062 -71.757812 85.320312 -67.148438 87.53125 -61.796875 C 89.75 -56.453125 90.859375 -50.488281 90.859375 -43.90625 C 90.859375 -37.332031 89.75 -31.347656 87.53125 -25.953125 C 85.320312 -20.554688 82.175781 -15.921875 78.09375 -12.046875 C 74.007812 -8.179688 69.117188 -5.207031 63.421875 -3.125 C 57.722656 -1.039062 51.390625 0 44.421875 0 Z M 26.25 -73.453125 L 26.25 -14.3125 L 43.90625 -14.3125 C 50.3125 -14.3125 55.816406 -15.503906 60.421875 -17.890625 C 65.023438 -20.273438 68.550781 -23.660156 71 -28.046875 C 73.445312 -32.429688 74.671875 -37.632812 74.671875 -43.65625 C 74.671875 -49.632812 73.46875 -54.859375 71.0625 -59.328125 C 68.65625 -63.796875 65.148438 -67.265625 60.546875 -69.734375 C 55.953125 -72.210938 50.363281 -73.453125 43.78125 -73.453125 Z M 26.25 -73.453125 "/></g></g><g style="fill:#231f20;fill-opacity:1;"><g transform="translate(656.672417, 192.631454)"><path style="stroke:none" d="M 71.125 0 L 10.453125 0 L 10.453125 -87.703125 L 70.546875 -87.703125 L 70.546875 -73.3125 L 26.5 -73.3125 L 26.5 -51.328125 L 64.546875 -51.328125 L 64.546875 -37.78125 L 26.5 -37.78125 L 26.5 -14.375 L 71.125 -14.375 Z M 71.125 0 "/></g></g><g style="fill:#231f20;fill-opacity:1;"><g transform="translate(731.979087, 192.631454)"><path style="stroke:none" d="M 40.046875 2 C 33.722656 2 28.304688 1.179688 23.796875 -0.453125 C 19.285156 -2.085938 15.597656 -4.269531 12.734375 -7 C 9.878906 -9.726562 7.773438 -12.769531 6.421875 -16.125 C 5.066406 -19.476562 4.390625 -22.875 4.390625 -26.3125 L 20.4375 -26.3125 C 20.4375 -23.601562 21.195312 -21.128906 22.71875 -18.890625 C 24.25 -16.660156 26.476562 -14.878906 29.40625 -13.546875 C 32.332031 -12.210938 35.859375 -11.546875 39.984375 -11.546875 C 53.003906 -11.546875 59.515625 -15.90625 59.515625 -24.625 C 59.515625 -27.332031 58.675781 -29.535156 57 -31.234375 C 55.320312 -32.941406 52.976562 -34.320312 49.96875 -35.375 C 46.96875 -36.425781 43.421875 -37.335938 39.328125 -38.109375 C 36.410156 -38.710938 33.414062 -39.441406 30.34375 -40.296875 C 27.269531 -41.160156 24.320312 -42.238281 21.5 -43.53125 C 18.6875 -44.820312 16.160156 -46.410156 13.921875 -48.296875 C 11.691406 -50.191406 9.921875 -52.46875 8.609375 -55.125 C 7.296875 -57.789062 6.640625 -60.953125 6.640625 -64.609375 C 6.640625 -69.378906 7.789062 -73.65625 10.09375 -77.4375 C 12.394531 -81.226562 15.972656 -84.226562 20.828125 -86.4375 C 25.679688 -88.65625 31.894531 -89.765625 39.46875 -89.765625 C 46.769531 -89.765625 52.859375 -88.664062 57.734375 -86.46875 C 62.617188 -84.28125 66.296875 -81.207031 68.765625 -77.25 C 71.242188 -73.289062 72.484375 -68.691406 72.484375 -63.453125 L 56.421875 -63.453125 C 56.421875 -65.734375 55.816406 -67.796875 54.609375 -69.640625 C 53.410156 -71.492188 51.550781 -72.96875 49.03125 -74.0625 C 46.519531 -75.15625 43.265625 -75.703125 39.265625 -75.703125 C 35.960938 -75.703125 33.234375 -75.390625 31.078125 -74.765625 C 28.929688 -74.140625 27.242188 -73.289062 26.015625 -72.21875 C 24.796875 -71.144531 23.9375 -69.941406 23.4375 -68.609375 C 22.945312 -67.273438 22.703125 -65.921875 22.703125 -64.546875 C 22.703125 -60.890625 24.523438 -58.09375 28.171875 -56.15625 C 31.828125 -54.226562 37.332031 -52.660156 44.6875 -51.453125 C 48.726562 -50.722656 52.609375 -49.722656 56.328125 -48.453125 C 60.046875 -47.191406 63.363281 -45.539062 66.28125 -43.5 C 69.207031 -41.457031 71.519531 -38.882812 73.21875 -35.78125 C 74.914062 -32.6875 75.765625 -28.945312 75.765625 -24.5625 C 75.765625 -18.894531 74.289062 -14.082031 71.34375 -10.125 C 68.40625 -6.164062 64.257812 -3.15625 58.90625 -1.09375 C 53.550781 0.96875 47.265625 2 40.046875 2 Z M 40.046875 2 "/></g></g><g style="fill:#231f20;fill-opacity:1;"><g transform="translate(811.798999, 192.631454)"><path style="stroke:none" d="M 81.828125 -87.703125 L 50.5625 -48.875 L 86.28125 0 L 67.25 0 L 40.046875 -37.203125 L 26.5 -20.25 L 26.5 0 L 10.453125 0 L 10.453125 -87.703125 L 26.5 -87.703125 L 26.5 -41.53125 L 63.0625 -87.703125 Z M 81.828125 -87.703125 "/></g></g><g style="fill:#231f20;fill-opacity:1;"><g transform="translate(898.969047, 192.631454)"><path style="stroke:none" d=""/></g></g><g style="fill:#231f20;fill-opacity:1;"><g transform="translate(931.142016, 192.631454)"><path style="stroke:none" d="M 40.046875 2 C 33.722656 2 28.304688 1.179688 23.796875 -0.453125 C 19.285156 -2.085938 15.597656 -4.269531 12.734375 -7 C 9.878906 -9.726562 7.773438 -12.769531 6.421875 -16.125 C 5.066406 -19.476562 4.390625 -22.875 4.390625 -26.3125 L 20.4375 -26.3125 C 20.4375 -23.601562 21.195312 -21.128906 22.71875 -18.890625 C 24.25 -16.660156 26.476562 -14.878906 29.40625 -13.546875 C 32.332031 -12.210938 35.859375 -11.546875 39.984375 -11.546875 C 53.003906 -11.546875 59.515625 -15.90625 59.515625 -24.625 C 59.515625 -27.332031 58.675781 -29.535156 57 -31.234375 C 55.320312 -32.941406 52.976562 -34.320312 49.96875 -35.375 C 46.96875 -36.425781 43.421875 -37.335938 39.328125 -38.109375 C 36.410156 -38.710938 33.414062 -39.441406 30.34375 -40.296875 C 27.269531 -41.160156 24.320312 -42.238281 21.5 -43.53125 C 18.6875 -44.820312 16.160156 -46.410156 13.921875 -48.296875 C 11.691406 -50.191406 9.921875 -52.46875 8.609375 -55.125 C 7.296875 -57.789062 6.640625 -60.953125 6.640625 -64.609375 C 6.640625 -69.378906 7.789062 -73.65625 10.09375 -77.4375 C 12.394531 -81.226562 15.972656 -84.226562 20.828125 -86.4375 C 25.679688 -88.65625 31.894531 -89.765625 39.46875 -89.765625 C 46.769531 -89.765625 52.859375 -88.664062 57.734375 -86.46875 C 62.617188 -84.28125 66.296875 -81.207031 68.765625 -77.25 C 71.242188 -73.289062 72.484375 -68.691406 72.484375 -63.453125 L 56.421875 -63.453125 C 56.421875 -65.734375 55.816406 -67.796875 54.609375 -69.640625 C 53.410156 -71.492188 51.550781 -72.96875 49.03125 -74.0625 C 46.519531 -75.15625 43.265625 -75.703125 39.265625 -75.703125 C 35.960938 -75.703125 33.234375 -75.390625 31.078125 -74.765625 C 28.929688 -74.140625 27.242188 -73.289062 26.015625 -72.21875 C 24.796875 -71.144531 23.9375 -69.941406 23.4375 -68.609375 C 22.945312 -67.273438 22.703125 -65.921875 22.703125 -64.546875 C 22.703125 -60.890625 24.523438 -58.09375 28.171875 -56.15625 C 31.828125 -54.226562 37.332031 -52.660156 44.6875 -51.453125 C 48.726562 -50.722656 52.609375 -49.722656 56.328125 -48.453125 C 60.046875 -47.191406 63.363281 -45.539062 66.28125 -43.5 C 69.207031 -41.457031 71.519531 -38.882812 73.21875 -35.78125 C 74.914062 -32.6875 75.765625 -28.945312 75.765625 -24.5625 C 75.765625 -18.894531 74.289062 -14.082031 71.34375 -10.125 C 68.40625 -6.164062 64.257812 -3.15625 58.90625 -1.09375 C 53.550781 0.96875 47.265625 2 40.046875 2 Z M 40.046875 2 "/></g></g><g style="fill:#231f20;fill-opacity:1;"><g transform="translate(1010.96197, 192.631454)"><path style="stroke:none" d="M 51.515625 0 L 35.46875 0 L 35.46875 -33.34375 L 0.96875 -87.703125 L 19.671875 -87.703125 L 43.53125 -47.65625 L 43.59375 -47.65625 L 67.25 -87.703125 L 86.15625 -87.703125 L 51.515625 -33.46875 Z M 51.515625 0 "/></g></g><g style="fill:#231f20;fill-opacity:1;"><g transform="translate(1098.067499, 192.631454)"><path style="stroke:none" d="M 40.046875 2 C 33.722656 2 28.304688 1.179688 23.796875 -0.453125 C 19.285156 -2.085938 15.597656 -4.269531 12.734375 -7 C 9.878906 -9.726562 7.773438 -12.769531 6.421875 -16.125 C 5.066406 -19.476562 4.390625 -22.875 4.390625 -26.3125 L 20.4375 -26.3125 C 20.4375 -23.601562 21.195312 -21.128906 22.71875 -18.890625 C 24.25 -16.660156 26.476562 -14.878906 29.40625 -13.546875 C 32.332031 -12.210938 35.859375 -11.546875 39.984375 -11.546875 C 53.003906 -11.546875 59.515625 -15.90625 59.515625 -24.625 C 59.515625 -27.332031 58.675781 -29.535156 57 -31.234375 C 55.320312 -32.941406 52.976562 -34.320312 49.96875 -35.375 C 46.96875 -36.425781 43.421875 -37.335938 39.328125 -38.109375 C 36.410156 -38.710938 33.414062 -39.441406 30.34375 -40.296875 C 27.269531 -41.160156 24.320312 -42.238281 21.5 -43.53125 C 18.6875 -44.820312 16.160156 -46.410156 13.921875 -48.296875 C 11.691406 -50.191406 9.921875 -52.46875 8.609375 -55.125 C 7.296875 -57.789062 6.640625 -60.953125 6.640625 -64.609375 C 6.640625 -69.378906 7.789062 -73.65625 10.09375 -77.4375 C 12.394531 -81.226562 15.972656 -84.226562 20.828125 -86.4375 C 25.679688 -88.65625 31.894531 -89.765625 39.46875 -89.765625 C 46.769531 -89.765625 52.859375 -88.664062 57.734375 -86.46875 C 62.617188 -84.28125 66.296875 -81.207031 68.765625 -77.25 C 71.242188 -73.289062 72.484375 -68.691406 72.484375 -63.453125 L 56.421875 -63.453125 C 56.421875 -65.734375 55.816406 -67.796875 54.609375 -69.640625 C 53.410156 -71.492188 51.550781 -72.96875 49.03125 -74.0625 C 46.519531 -75.15625 43.265625 -75.703125 39.265625 -75.703125 C 35.960938 -75.703125 33.234375 -75.390625 31.078125 -74.765625 C 28.929688 -74.140625 27.242188 -73.289062 26.015625 -72.21875 C 24.796875 -71.144531 23.9375 -69.941406 23.4375 -68.609375 C 22.945312 -67.273438 22.703125 -65.921875 22.703125 -64.546875 C 22.703125 -60.890625 24.523438 -58.09375 28.171875 -56.15625 C 31.828125 -54.226562 37.332031 -52.660156 44.6875 -51.453125 C 48.726562 -50.722656 52.609375 -49.722656 56.328125 -48.453125 C 60.046875 -47.191406 63.363281 -45.539062 66.28125 -43.5 C 69.207031 -41.457031 71.519531 -38.882812 73.21875 -35.78125 C 74.914062 -32.6875 75.765625 -28.945312 75.765625 -24.5625 C 75.765625 -18.894531 74.289062 -14.082031 71.34375 -10.125 C 68.40625 -6.164062 64.257812 -3.15625 58.90625 -1.09375 C 53.550781 0.96875 47.265625 2 40.046875 2 Z M 40.046875 2 "/></g></g><g style="fill:#231f20;fill-opacity:1;"><g transform="translate(1177.887411, 192.631454)"><path style="stroke:none" d="M 44.875 0 L 28.890625 0 L 28.890625 -73.375 L 2.765625 -73.375 L 2.765625 -87.703125 L 71 -87.703125 L 71 -73.375 L 44.875 -73.375 Z M 44.875 0 "/></g></g><g style="fill:#231f20;fill-opacity:1;"><g transform="translate(1251.646683, 192.631454)"><path style="stroke:none" d="M 71.125 0 L 10.453125 0 L 10.453125 -87.703125 L 70.546875 -87.703125 L 70.546875 -73.3125 L 26.5 -73.3125 L 26.5 -51.328125 L 64.546875 -51.328125 L 64.546875 -37.78125 L 26.5 -37.78125 L 26.5 -14.375 L 71.125 -14.375 Z M 71.125 0 "/></g></g><g style="fill:#231f20;fill-opacity:1;"><g transform="translate(1326.953353, 192.631454)"><path style="stroke:none" d="M 26.5 0 L 10.453125 0 L 10.453125 -87.703125 L 24.4375 -87.703125 L 54.6875 -46.8125 L 85.125 -87.703125 L 99.109375 -87.703125 L 99.109375 0 L 83.0625 0 L 83.0625 -61.96875 L 56.8125 -26.109375 L 52.484375 -26.109375 L 26.5 -62.09375 Z M 26.5 0 "/></g></g><path style=" stroke:none;fill-rule:nonzero;fill:#00d7ff;fill-opacity:1;" d="M 53.570312 113.367188 C 52.328125 112.332031 13.308594 86.628906 9.460938 84.585938 C 4.632812 82.023438 0.515625 84.792969 0.1875 90.417969 C 0.113281 91.730469 0.527344 154.515625 0.558594 158.75 C 0.03125 167.019531 2.511719 174.195312 8.355469 180.144531 C 11.1875 183.050781 63.289062 215.828125 63.339844 215.726562 C 64.199219 214.945312 64.515625 145.953125 63.9375 142.074219 C 65.429688 130.714844 62.613281 120.910156 53.570312 113.367188 Z M 53.570312 113.367188 "/><path style=" stroke:none;fill-rule:nonzero;fill:#009cdf;fill-opacity:1;" d="M 132.503906 212.929688 C 132.578125 202.15625 132.742188 119.675781 132.699219 118.847656 C 132.328125 109.503906 128.527344 101.765625 120.785156 96.601562 C 107.441406 87.703125 78.0625 69.417969 77.085938 69.035156 C 75.957031 68.527344 74.882812 68.316406 73.890625 68.359375 C 72.988281 68.375 72.195312 68.601562 71.519531 69.046875 C 69.746094 70.082031 68.554688 72.222656 68.386719 75.132812 C 68.324219 76.226562 68.550781 211.542969 68.492188 216.667969 C 68.46875 218.730469 68.902344 219.957031 70.96875 221.167969 C 78.902344 225.832031 86.695312 230.757812 94.367188 235.84375 C 98.867188 238.828125 102.957031 238.746094 107.390625 235.828125 C 114.007812 231.472656 120.585938 227.003906 127.519531 223.203125 C 131.992188 220.757812 133.804688 217.800781 132.503906 212.929688 Z M 132.503906 212.929688 "/><g clip-rule="nonzero" clip-path="url(#a83695e264)"><path style=" stroke:none;fill-rule:nonzero;fill:#5800ff;fill-opacity:1;" d="M 201.289062 85.523438 C 201.398438 83.789062 201.410156 82.09375 201.292969 80.441406 C 201.292969 80.324219 201.292969 80.210938 201.292969 80.09375 C 200.679688 69.757812 195.769531 61.925781 187.242188 56.296875 C 177.816406 50.074219 168.460938 43.734375 158.796875 37.898438 C 154.847656 35.515625 151.039062 32.789062 146.617188 31.125 C 146.59375 31.113281 146.554688 31.09375 146.53125 31.078125 C 145.1875 30.363281 143.902344 30.078125 142.730469 30.136719 C 140.847656 30.019531 139.527344 30.699219 138.738281 32.339844 C 137.902344 33.488281 137.367188 35.035156 137.257812 36.90625 C 137.230469 37.414062 137.976562 204.273438 137.804688 215.414062 C 138.714844 216.804688 139.652344 215.890625 140.46875 215.367188 C 153.046875 207.265625 165.613281 199.140625 178.179688 191.023438 C 190.265625 185.039062 199.996094 177.011719 201.203125 162.433594 C 201.695312 156.523438 201.289062 91.574219 201.289062 85.523438 Z M 201.289062 85.523438 "/></g></g></svg>